<?xml version="1.0" standalone="no"?>
<!DOCTYPE svg PUBLIC "-//W3C//DTD SVG 20010904//EN"
 "http://www.w3.org/TR/2001/REC-SVG-20010904/DTD/svg10.dtd">
<svg version="1.0" xmlns="http://www.w3.org/2000/svg"
 width="800.000000pt" height="800.000000pt" viewBox="0 0 800.000000 800.000000"
 preserveAspectRatio="xMidYMid meet">
<metadata>
Created by potrace 1.14, written by Peter Selinger 2001-2017
</metadata>
<g transform="translate(0.000000,800.000000) scale(0.100000,-0.100000)"
fill="#000000" stroke="none">
<path d="M0 4000 l0 -4000 4000 0 4000 0 0 4000 0 4000 -4000 0 -4000 0 0
-4000z m482 3078 l3 -363 145 -5 145 -5 3 -92 3 -92 -27 -7 c-15 -4 -141 -4
-280 -1 -139 3 -254 4 -256 2 -2 -2 -2 -23 0 -47 l4 -44 281 -2 c155 -2 307
-7 337 -13 152 -30 284 -149 330 -297 111 -356 24 -789 -184 -924 -75 -48
-143 -68 -260 -77 l-91 -6 -3 -382 c-2 -377 -3 -383 -23 -394 -24 -13 -376 -9
-396 4 -10 6 -13 217 -13 998 0 544 -2 989 -5 989 -3 0 -18 -15 -34 -32 -41
-46 -49 -28 -12 26 17 24 31 47 31 50 0 3 -22 17 -49 31 -80 40 -80 58 0 30
30 -11 46 -12 53 -5 7 7 13 158 17 448 5 428 6 438 29 499 13 34 31 64 39 66
9 3 60 5 113 6 l98 1 2 -362z m923 267 l0 -89 -144 -3 c-80 -2 -149 -7 -153
-11 -5 -5 -8 -40 -6 -78 l3 -69 108 -3 108 -3 -3 -92 -3 -92 -83 3 c-135 6
-132 9 -132 -103 l0 -94 153 -3 152 -3 3 -92 3 -93 -295 0 -294 0 -7 243 c-5
191 -4 423 5 670 0 4 132 6 293 5 l292 -3 0 -90z m740 0 l0 -90 -100 -5 -100
-5 0 -360 0 -360 -142 -3 -143 -3 0 366 c0 284 -3 365 -12 367 -7 1 -51 2 -98
2 l-85 1 -3 79 c-2 44 -1 85 2 93 5 11 67 13 343 11 l338 -3 0 -90z m685 15
l0 -80 -91 -163 c-50 -89 -120 -209 -154 -267 -35 -58 -65 -111 -67 -119 -2
-10 29 -13 152 -14 l155 -2 3 -97 c1 -54 -1 -98 -5 -99 -4 -1 -145 -2 -312 -3
-244 -1 -307 1 -317 12 -9 8 -14 37 -14 77 0 74 5 84 199 420 l121 210 -137 3
c-94 2 -140 6 -145 15 -9 14 -11 148 -2 171 5 14 42 16 310 16 l304 0 0 -80z
m750 -9 l0 -89 -90 -4 c-49 -2 -92 -7 -96 -11 -4 -4 -7 -168 -8 -364 l-2 -358
-139 0 -140 0 -5 360 -5 360 -95 5 -95 5 -3 79 c-2 44 -1 85 2 93 4 10 70 13
341 13 l335 0 0 -89z m635 -6 l0 -90 -150 -5 -150 -5 0 -75 0 -75 108 -3 108
-3 -3 -92 -3 -92 -105 -5 -105 -5 0 -90 0 -90 153 -3 152 -3 0 -94 c0 -52 -3
-95 -7 -95 -5 -1 -137 -2 -296 -4 l-287 -3 -7 25 c-7 31 4 880 13 893 3 5 126
8 292 7 l287 -3 0 -90z m988 75 c21 -8 54 -28 75 -45 l37 -32 -18 -57 c-16
-51 -20 -56 -42 -50 -28 7 -65 -11 -65 -32 0 -8 14 -20 30 -25 36 -13 39 -36
5 -45 -39 -10 -48 -28 -25 -49 24 -22 11 -45 -25 -45 -12 0 -29 -7 -36 -16
-11 -14 -10 -18 5 -30 10 -7 24 -15 30 -17 7 -3 5 -16 -6 -40 -13 -28 -24 -37
-42 -37 -13 0 -30 -7 -37 -16 -12 -15 -10 -20 13 -37 l27 -20 -21 -56 c-12
-31 -25 -67 -30 -81 -9 -23 -12 -19 -42 55 -18 44 -36 89 -42 100 -6 14 -11
-33 -14 -150 l-5 -170 -133 -5 c-78 -3 -137 -1 -143 5 -11 11 -13 898 -2 909
14 13 464 1 506 -14z m832 -75 l0 -90 -150 -5 -150 -5 0 -75 0 -75 108 -3 107
-3 0 -89 c0 -50 -1 -91 -2 -91 -2 -1 -50 -4 -108 -8 l-105 -6 -3 -88 c-2 -64
1 -89 10 -92 7 -3 76 -6 153 -8 l140 -2 0 -92 0 -92 -290 -3 -290 -3 -3 463
-2 462 292 -2 293 -3 0 -90z m340 -365 l0 -455 -130 -7 c-71 -4 -136 -5 -143
-3 -9 3 -12 104 -12 458 1 250 3 457 6 460 3 2 67 4 142 3 l137 -1 0 -455z
m381 360 c1 -52 2 -130 3 -173 l1 -78 48 3 47 3 5 170 5 170 138 3 137 3 -2
-462 -3 -462 -135 -1 -135 -1 -5 190 -5 190 -47 3 -48 3 0 -190 c0 -115 -4
-191 -10 -193 -5 -1 -68 -2 -140 0 l-130 3 0 460 0 460 138 -3 137 -3 1 -95z
m1089 5 l0 -90 -152 -3 -153 -3 0 -79 0 -80 110 0 111 0 -3 -92 -3 -93 -107
-3 -108 -3 0 -94 0 -95 108 -1 c59 -1 126 -1 148 0 36 2 42 -1 47 -21 12 -42
8 -155 -5 -164 -7 -5 -141 -9 -298 -9 l-285 0 -3 450 c-1 248 0 456 3 463 3
10 68 12 297 10 l293 -3 0 -90z m-2479 -123 c10 -52 -1 -154 -21 -192 -10 -19
-34 -49 -53 -67 l-35 -32 72 -201 c39 -111 71 -203 71 -206 0 -2 -65 -4 -145
-4 -132 0 -145 2 -155 19 -15 29 -12 87 7 140 16 47 16 47 62 47 40 -1 46 2
46 19 0 16 -8 21 -37 25 l-37 5 23 55 c13 30 31 78 41 105 40 114 47 131 63
149 9 10 16 27 14 38 -2 11 9 53 24 95 25 67 29 73 41 57 7 -9 16 -33 19 -52z
m-3276 -781 c0 -22 3 -23 40 -17 45 7 53 -5 14 -23 -23 -10 -26 -16 -20 -44 5
-25 4 -29 -6 -19 -7 7 -15 12 -18 12 -8 0 -4 -24 81 -555 96 -592 154 -963
190 -1204 16 -113 31 -207 34 -209 3 -3 5 449 5 1004 0 772 3 1013 12 1022 9
9 91 12 308 12 244 0 306 -3 351 -16 220 -66 321 -213 349 -509 23 -252 -29
-472 -141 -591 l-30 -30 67 -275 c94 -389 153 -653 147 -661 -2 -5 -101 -8
-219 -8 -214 0 -215 0 -223 23 -5 12 -32 131 -61 262 -28 132 -66 299 -83 370
l-32 130 -7 -378 c-3 -208 -9 -385 -12 -393 -4 -11 -36 -14 -163 -14 -87 0
-182 -3 -210 -6 -50 -6 -53 -8 -53 -36 0 -17 -4 -27 -10 -23 -5 3 -10 15 -10
26 0 22 0 22 -37 9 -26 -9 -27 -9 -9 5 18 14 1 15 -172 15 -180 0 -192 1 -202
20 -6 11 -17 73 -25 137 -15 113 -31 208 -41 246 -5 14 -17 17 -78 17 -71 0
-74 -1 -84 -27 -6 -16 -14 -59 -17 -98 -9 -99 -42 -265 -56 -281 -9 -11 -52
-14 -206 -14 -173 0 -194 2 -200 17 -4 9 19 179 50 377 55 347 128 820 147
956 38 267 121 735 132 742 7 4 115 8 240 8 l227 0 7 36 c7 39 24 29 24 -15z
m2670 7 c27 17 33 15 27 -8 -5 -20 0 -20 401 -20 224 0 413 -4 420 -8 9 -7 12
-56 10 -213 l-3 -204 -220 -3 c-121 -1 -224 -7 -229 -12 -11 -11 -14 -320 -3
-337 6 -10 50 -13 162 -13 152 0 155 0 160 -22 3 -13 4 -108 3 -213 l-3 -190
-155 -3 c-131 -2 -157 -5 -167 -19 -20 -26 -15 -70 9 -93 18 -17 19 -20 5 -20
-10 0 -19 -11 -23 -26 -7 -28 4 -265 13 -274 2 -3 104 -7 226 -10 l222 -5 3
-209 c2 -161 -1 -211 -10 -218 -22 -13 -862 -10 -876 4 -9 9 -12 249 -12 1020
l0 1008 -24 0 c-33 0 -44 20 -16 27 20 5 22 10 16 51 l-6 46 25 -24 c22 -21
29 -22 45 -12z m-780 -47 c5 -11 10 -81 10 -155 0 -104 3 -135 13 -134 8 2 14
-14 17 -47 l5 -50 64 150 c35 83 72 170 83 195 10 24 24 48 31 52 7 4 103 8
215 8 173 0 203 -2 208 -15 4 -9 -36 -101 -91 -213 -53 -108 -131 -270 -172
-359 l-74 -162 41 -153 c23 -84 104 -381 182 -660 77 -279 138 -514 135 -522
-6 -14 -35 -16 -211 -16 -163 0 -207 3 -219 14 -7 8 -58 189 -111 402 -54 214
-101 393 -104 399 -4 5 -9 -171 -12 -393 -4 -343 -7 -404 -20 -412 -8 -5 -97
-10 -198 -10 -107 0 -191 -4 -203 -10 -16 -9 -19 -7 -19 8 0 10 -5 23 -12 30
-8 8 -8 15 0 24 8 10 12 304 14 1018 2 553 7 1011 11 1018 6 9 59 12 207 12
187 0 200 -1 210 -19z m2758 -185 c2 -136 -1 -203 -9 -212 -8 -10 -48 -14
-147 -16 l-137 -3 -3 -820 c-1 -450 -6 -823 -10 -827 -4 -4 -97 -8 -207 -8
-170 -1 -201 1 -211 14 -8 12 -12 233 -13 823 0 444 -4 810 -9 815 -4 4 -68 9
-142 10 l-135 3 -3 200 c-1 110 0 205 3 212 3 11 105 13 512 11 l508 -3 3
-199z m1106 188 c3 -9 6 -92 6 -184 0 -94 4 -171 9 -175 5 -3 31 -1 57 5 62
14 68 5 10 -19 -25 -11 -46 -23 -46 -26 0 -3 12 -28 26 -56 33 -62 25 -75 -12
-20 -14 23 -32 41 -39 41 -6 0 -26 -18 -44 -41 -41 -50 -53 -43 -17 11 14 22
26 42 26 45 0 3 -58 5 -130 5 -118 0 -130 -2 -140 -19 -7 -13 -10 -289 -10
-825 0 -448 -4 -807 -9 -810 -16 -10 -403 -8 -413 2 -6 6 -9 314 -9 825 1 541
-3 818 -9 822 -6 4 -67 6 -137 6 -77 0 -132 4 -140 11 -10 8 -13 56 -13 198 0
104 3 195 6 204 5 14 60 16 514 16 454 0 509 -2 514 -16z m-5795 -2820 c18 -8
40 -14 48 -14 24 0 133 -100 133 -122 0 -19 0 -19 -25 0 -14 11 -42 23 -62 27
-21 3 -49 17 -63 30 -57 54 -293 69 -415 27 -16 -6 -49 -16 -73 -23 -32 -9
-56 -28 -98 -76 -59 -67 -94 -82 -94 -39 0 38 66 86 236 170 86 44 326 55 413
20z m4441 -112 c0 -6 -41 -19 -152 -49 -32 -8 -19 -23 14 -16 24 5 29 3 23 -7
-5 -8 -20 -10 -40 -7 -25 4 -38 1 -51 -14 -9 -10 -23 -19 -30 -19 -24 0 -108
-120 -128 -182 -3 -10 -10 -18 -16 -18 -13 0 -13 27 0 35 6 3 10 17 10 30 0
43 40 103 108 163 69 60 105 74 222 85 19 2 36 5 38 5 1 1 2 -1 2 -6z m170
-17 c24 -14 22 -14 -32 -15 -53 0 -76 9 -61 24 11 11 67 6 93 -9z m155 -35 c4
-6 -6 -10 -24 -10 -16 0 -33 5 -36 10 -4 6 6 10 24 10 16 0 33 -4 36 -10z
m-4445 -146 c0 -8 -4 -12 -10 -9 -5 3 -10 10 -10 16 0 5 5 9 10 9 6 0 10 -7
10 -16z m3724 -152 c-1 -7 -2 -23 -2 -37 -1 -17 -10 -29 -26 -35 -30 -11 -41
-31 -51 -90 -4 -24 -14 -55 -22 -67 -9 -14 -17 -58 -21 -108 -2 -47 -8 -85
-12 -85 -25 0 -17 168 10 205 4 6 10 31 13 57 7 47 48 128 67 128 5 0 7 7 3
16 -3 9 0 20 8 25 17 11 34 6 33 -9z m-124 -480 c0 -21 -2 -24 -10 -12 -13 20
-13 53 0 45 6 -3 10 -18 10 -33z m-3557 -169 c25 -32 59 -71 76 -87 36 -34 39
-46 12 -46 -26 0 -71 38 -71 61 0 11 -18 39 -40 63 -39 42 -50 66 -31 66 6 0
30 -26 54 -57z m3537 43 c0 -16 -18 -31 -27 -22 -8 8 5 36 17 36 5 0 10 -6 10
-14z m-40 -185 c0 -6 -4 -13 -10 -16 -5 -3 -10 1 -10 9 0 9 5 16 10 16 6 0 10
-4 10 -9z m-3390 -46 c0 -8 -4 -15 -10 -15 -5 0 -10 7 -10 15 0 8 5 15 10 15
6 0 10 -7 10 -15z m-5 -51 c24 -26 33 -54 17 -54 -14 0 -73 66 -66 73 13 12
24 8 49 -19z m-1685 -19 c-14 -8 -29 -14 -35 -14 -5 0 1 6 15 14 14 8 30 14
35 14 6 0 -1 -6 -15 -14z m1765 -86 c10 -19 23 -29 38 -29 23 0 47 -17 47 -32
0 -5 -12 -5 -27 -2 -29 7 -92 70 -93 92 0 20 18 5 35 -29z m144 -100 c25 -6
57 -17 70 -26 20 -13 21 -17 9 -29 -12 -12 -19 -11 -53 6 -22 11 -51 20 -65
20 -14 0 -35 7 -46 15 -16 13 -17 16 -4 25 8 5 21 7 29 5 8 -3 35 -10 60 -16z
m186 -89 c3 -5 2 -10 -4 -10 -5 0 -13 5 -16 10 -3 6 -2 10 4 10 5 0 13 -4 16
-10z m-2589 -175 c-11 -8 -22 -12 -25 -9 -6 6 19 24 34 24 6 -1 1 -7 -9 -15z
m5731 -32 c2 -6 -17 -28 -42 -48 -25 -21 -45 -44 -45 -51 0 -10 -16 -14 -60
-14 -33 0 -60 4 -60 9 0 16 177 124 194 118 6 -2 11 -8 13 -14z"/>
<path d="M315 7357 c-10 -8 -15 -19 -11 -25 9 -15 73 -16 82 -1 15 24 -43 46
-71 26z"/>
<path d="M311 7241 c-12 -8 -12 -12 -2 -25 24 -29 90 -14 78 18 -7 18 -53 22
-76 7z"/>
<path d="M314 7125 c-19 -15 -19 -15 0 -30 11 -8 27 -15 36 -15 9 0 25 7 36
15 19 15 19 15 0 30 -11 8 -27 15 -36 15 -9 0 -25 -7 -36 -15z"/>
<path d="M313 7013 c-22 -8 -14 -33 12 -43 30 -11 75 3 75 24 0 22 -52 34 -87
19z"/>
<path d="M312 6888 c-18 -18 -14 -36 11 -44 29 -10 49 -6 64 13 26 33 -44 62
-75 31z"/>
<path d="M312 6764 c-12 -8 -22 -19 -22 -25 0 -17 48 -29 75 -19 32 12 32 38
-1 50 -31 12 -25 13 -52 -6z"/>
<path d="M317 6643 c-24 -6 -19 -47 6 -51 30 -6 67 7 67 23 0 12 -44 40 -53
34 -1 -1 -10 -3 -20 -6z"/>
<path d="M472 6628 c-27 -27 40 -52 77 -29 12 8 12 12 2 25 -16 19 -62 21 -79
4z"/>
<path d="M621 6631 c-8 -5 -11 -16 -8 -25 10 -26 87 -18 87 9 0 23 -52 33 -79
16z"/>
<path d="M646 6244 c-33 -33 -37 -50 -15 -78 27 -34 71 -35 105 -1 23 23 24
26 10 54 -23 43 -70 55 -100 25z"/>
<path d="M371 6224 c-32 -41 -5 -84 54 -84 56 0 85 58 47 93 -28 26 -77 22
-101 -9z"/>
<path d="M883 6150 c-65 -26 -37 -110 37 -110 22 0 70 41 70 60 0 18 -48 60
-67 59 -10 0 -28 -4 -40 -9z"/>
<path d="M377 5972 c-53 -58 24 -131 86 -82 32 25 34 53 7 80 -25 25 -72 26
-93 2z"/>
<path d="M634 5977 c-2 -7 -3 -107 -2 -222 l3 -210 33 -3 c40 -4 68 17 88 65
17 39 19 259 4 315 -6 21 -21 44 -33 53 -26 18 -86 20 -93 2z"/>
<path d="M940 5920 c-11 -11 -20 -26 -20 -34 0 -22 32 -55 60 -61 33 -8 80 27
80 59 0 52 -80 76 -120 36z"/>
<path d="M382 5714 c-50 -35 -8 -115 52 -100 60 15 76 75 26 101 -37 19 -50
19 -78 -1z"/>
<path d="M952 5698 c-34 -17 -39 -54 -11 -84 12 -13 32 -24 44 -24 29 0 75 37
75 60 0 21 -45 60 -69 59 -9 0 -26 -5 -39 -11z"/>
<path d="M376 5449 c-14 -11 -26 -28 -26 -38 0 -23 41 -61 67 -61 28 0 73 37
73 60 0 22 -45 60 -70 60 -10 0 -29 -9 -44 -21z"/>
<path d="M860 5451 c-19 -37 -12 -60 26 -78 31 -16 38 -16 61 -3 35 20 38 32
14 61 l-19 24 -28 -25 c-27 -25 -28 -23 -8 25 9 23 -33 19 -46 -4z"/>
<path d="M646 5342 c-12 -23 -12 -33 -3 -53 17 -33 77 -39 106 -10 26 26 26
32 0 65 -30 38 -83 37 -103 -2z"/>
<path d="M381 5164 c-17 -14 -31 -34 -31 -44 0 -22 45 -60 70 -60 27 0 70 39
70 64 0 25 -23 50 -56 60 -15 5 -31 -1 -53 -20z"/>
<path d="M384 4886 c-51 -36 -23 -106 41 -106 28 0 37 6 51 31 15 30 15 33 -4
58 -23 31 -59 38 -88 17z"/>
<path d="M378 4598 c-34 -27 -26 -75 16 -95 32 -15 37 -15 60 1 37 24 45 65
16 88 -26 21 -69 24 -92 6z"/>
<path d="M1118 7363 c-27 -7 -22 -42 6 -49 26 -6 66 10 66 27 0 8 -46 32 -53
28 -1 -1 -10 -3 -19 -6z"/>
<path d="M1253 7363 c-18 -7 -16 -40 3 -47 27 -10 61 -7 73 8 23 28 -33 57
-76 39z"/>
<path d="M934 7349 c-15 -24 43 -46 71 -26 10 8 15 19 11 25 -9 15 -73 16 -82
1z"/>
<path d="M943 7243 c-20 -8 -15 -31 8 -38 28 -9 69 2 69 19 0 22 -44 33 -77
19z"/>
<path d="M953 7130 c-30 -12 -29 -28 2 -42 19 -9 32 -8 52 1 l28 13 -24 19
c-26 21 -27 21 -58 9z"/>
<path d="M941 7011 c-25 -16 -4 -41 32 -41 44 0 67 24 38 39 -24 13 -51 14
-70 2z"/>
<path d="M1121 7006 c-10 -11 -7 -17 11 -30 12 -9 27 -16 33 -16 6 0 21 7 33
16 30 21 13 44 -33 44 -18 0 -38 -6 -44 -14z"/>
<path d="M953 6890 c-30 -12 -29 -28 2 -42 19 -9 32 -8 52 1 l28 13 -24 19
c-26 21 -27 21 -58 9z"/>
<path d="M943 6764 c-19 -8 -16 -32 6 -44 27 -14 74 4 69 28 -3 17 -49 27 -75
16z"/>
<path d="M945 6636 c-28 -20 -12 -46 28 -46 47 0 66 23 35 44 -27 20 -39 20
-63 2z"/>
<path d="M1093 6624 c-8 -21 10 -36 41 -36 36 0 60 20 45 38 -16 20 -78 18
-86 -2z"/>
<path d="M1251 6631 c-8 -5 -11 -16 -8 -26 5 -12 17 -15 44 -13 30 2 38 7 38
23 0 15 -8 21 -30 23 -16 1 -36 -2 -44 -7z"/>
<path d="M1592 7358 c-17 -17 -15 -26 8 -38 27 -14 70 -2 70 20 0 29 -55 41
-78 18z"/>
<path d="M1773 7364 c-38 -16 10 -60 54 -49 37 9 28 49 -12 52 -16 1 -36 0
-42 -3z"/>
<path d="M1962 7358 c-18 -18 -15 -27 14 -38 29 -11 64 2 64 24 0 25 -57 35
-78 14z"/>
<path d="M1775 7246 c-28 -20 -12 -46 28 -46 47 0 66 23 35 44 -27 20 -39 20
-63 2z"/>
<path d="M1764 7125 c-19 -15 -19 -15 1 -31 13 -10 30 -13 50 -9 37 7 50 26
28 43 -23 16 -55 15 -79 -3z"/>
<path d="M1764 7005 c-10 -24 9 -37 47 -33 26 2 34 8 34 23 0 16 -8 21 -38 23
-27 2 -39 -1 -43 -13z"/>
<path d="M1773 6893 c-19 -7 -15 -31 7 -43 27 -14 70 -2 70 20 0 23 -45 37
-77 23z"/>
<path d="M1764 6755 c-10 -24 9 -37 47 -33 26 2 34 8 34 23 0 16 -8 21 -38 23
-27 2 -39 -1 -43 -13z"/>
<path d="M1783 6639 c-30 -11 -29 -37 1 -45 34 -8 68 4 64 23 -4 21 -38 32
-65 22z"/>
<path d="M2317 7363 c-27 -26 24 -54 63 -33 17 9 19 14 9 26 -12 14 -60 19
-72 7z"/>
<path d="M2481 7356 c-10 -12 -8 -17 8 -25 41 -23 97 -1 69 27 -17 17 -63 15
-77 -2z"/>
<path d="M2669 7354 c-11 -14 -10 -18 6 -30 25 -18 55 -14 69 9 8 14 8 20 -4
27 -23 15 -56 12 -71 -6z"/>
<path d="M2603 7235 c-8 -22 14 -36 52 -33 22 2 30 8 30 23 0 16 -8 21 -38 23
-27 2 -39 -1 -44 -13z"/>
<path d="M2548 7133 c-26 -7 -22 -32 7 -45 19 -9 29 -7 51 7 14 9 22 21 18 25
-12 12 -55 19 -76 13z"/>
<path d="M2483 7013 c-7 -2 -13 -11 -13 -18 0 -27 77 -35 87 -9 10 26 -36 43
-74 27z"/>
<path d="M2400 6875 c-10 -12 -7 -17 14 -26 36 -17 85 3 66 26 -7 8 -25 15
-40 15 -15 0 -33 -7 -40 -15z"/>
<path d="M2332 6757 c-17 -20 8 -39 45 -35 42 5 39 42 -3 46 -18 2 -36 -3 -42
-11z"/>
<path d="M2297 6633 c-27 -26 24 -54 63 -33 17 9 19 14 9 26 -12 14 -60 19
-72 7z"/>
<path d="M2473 6624 c-7 -19 13 -34 48 -34 29 0 55 23 44 40 -10 17 -85 12
-92 -6z"/>
<path d="M2667 6633 c-27 -26 24 -54 63 -33 17 9 19 14 9 26 -12 14 -60 19
-72 7z"/>
<path d="M3041 7361 c-23 -15 -5 -41 29 -41 27 0 51 22 39 35 -10 10 -56 14
-68 6z"/>
<path d="M3214 7355 c-16 -13 -17 -16 -4 -25 20 -13 67 -13 75 0 9 14 -13 40
-34 40 -10 0 -26 -7 -37 -15z"/>
<path d="M3413 7363 c-19 -7 -16 -31 6 -43 26 -13 33 -13 56 4 36 26 -16 58
-62 39z"/>
<path d="M3210 7240 c-13 -9 -12 -12 4 -25 34 -26 85 -12 73 19 -7 18 -53 21
-77 6z"/>
<path d="M3218 7129 c-25 -14 -22 -28 6 -39 32 -12 66 -2 66 20 0 28 -40 38
-72 19z"/>
<path d="M3212 7007 c-17 -20 8 -39 45 -35 42 5 39 42 -3 46 -18 2 -36 -3 -42
-11z"/>
<path d="M3223 6890 c-30 -12 -29 -28 1 -40 33 -12 66 -2 66 21 0 11 -4 19 -9
19 -5 0 -15 2 -23 4 -7 3 -23 1 -35 -4z"/>
<path d="M3209 6754 c-10 -13 -10 -17 2 -25 37 -23 104 2 77 29 -17 17 -63 15
-79 -4z"/>
<path d="M3218 6639 c-39 -22 -15 -49 43 -49 37 0 50 27 24 46 -22 16 -43 17
-67 3z"/>
<path d="M4064 7355 c-19 -15 -19 -15 0 -30 11 -8 25 -15 31 -15 6 0 20 7 31
15 19 15 19 15 0 30 -11 8 -25 15 -31 15 -6 0 -20 -7 -31 -15z"/>
<path d="M3745 7350 c-12 -19 10 -32 46 -28 48 4 46 32 -3 36 -20 2 -39 -2
-43 -8z"/>
<path d="M3917 7353 c-4 -3 -7 -13 -7 -20 0 -22 74 -13 78 10 3 13 -4 17 -31
17 -18 0 -37 -3 -40 -7z"/>
<path d="M3758 7243 c-21 -5 -23 -14 -6 -31 14 -14 47 -15 67 -3 12 8 12 12 2
25 -13 16 -29 18 -63 9z"/>
<path d="M3763 7129 c-30 -11 -29 -27 1 -40 26 -12 70 4 64 23 -6 17 -41 26
-65 17z"/>
<path d="M3753 7013 c-20 -8 -15 -31 8 -38 28 -9 69 2 69 19 0 22 -44 33 -77
19z"/>
<path d="M3941 7011 c-8 -5 -11 -16 -8 -25 10 -26 87 -18 87 9 0 23 -52 33
-79 16z"/>
<path d="M3744 6878 c-7 -11 21 -38 41 -38 20 0 48 27 41 38 -4 7 -22 12 -41
12 -19 0 -37 -5 -41 -12z"/>
<path d="M3750 6755 c-17 -21 -3 -35 36 -35 23 0 37 6 41 16 12 31 -53 47 -77
19z"/>
<path d="M3745 6630 c-10 -16 14 -40 39 -40 31 0 50 16 43 34 -7 18 -72 23
-82 6z"/>
<path d="M3912 6628 c-17 -17 4 -38 38 -38 34 0 55 21 38 38 -7 7 -24 12 -38
12 -14 0 -31 -5 -38 -12z"/>
<path d="M4061 6631 c-25 -16 -4 -41 34 -41 23 0 38 5 42 16 7 18 -12 34 -42
34 -11 0 -26 -4 -34 -9z"/>
<path d="M4824 7355 c-16 -13 -17 -16 -4 -25 22 -14 66 -12 79 4 10 12 8 17
-8 25 -27 15 -44 14 -67 -4z"/>
<path d="M4999 7354 c-10 -13 -10 -17 2 -25 35 -22 93 3 67 29 -17 17 -53 15
-69 -4z"/>
<path d="M5155 7316 c-17 -14 -18 -17 -5 -26 23 -15 70 -12 77 5 7 19 5 22
-27 30 -16 4 -33 0 -45 -9z"/>
<path d="M4820 7240 c-13 -9 -12 -12 4 -25 11 -8 27 -15 36 -15 9 0 25 7 36
15 16 13 17 16 4 25 -8 5 -26 10 -40 10 -14 0 -32 -5 -40 -10z"/>
<path d="M4982 7163 l3 -88 32 -3 c41 -4 63 27 63 88 0 61 -21 90 -66 90 l-35
0 3 -87z"/>
<path d="M4824 7126 c-25 -19 -7 -39 36 -39 43 0 61 20 36 39 -11 8 -27 14
-36 14 -9 0 -25 -6 -36 -14z"/>
<path d="M4821 7011 c-12 -8 -12 -12 -2 -25 16 -19 64 -21 80 -3 23 28 -42 51
-78 28z"/>
<path d="M5004 6978 c-4 -6 1 -17 11 -25 28 -20 86 2 71 26 -9 15 -73 14 -82
-1z"/>
<path d="M4815 6880 c-11 -18 5 -30 39 -30 33 0 62 20 49 33 -10 11 -81 8 -88
-3z"/>
<path d="M4823 6764 c-22 -9 -14 -33 11 -40 37 -9 61 -1 61 21 0 15 -7 20 -30
22 -16 1 -36 0 -42 -3z"/>
<path d="M4845 6642 c-34 -7 -42 -22 -21 -38 11 -8 28 -14 37 -14 20 0 51 28
44 40 -7 11 -36 17 -60 12z"/>
<path d="M5893 7360 c-30 -12 -29 -28 3 -40 17 -7 32 -7 45 0 24 14 24 26 0
40 -22 11 -19 11 -48 0z"/>
<path d="M5564 7348 c-7 -11 21 -38 41 -38 20 0 48 27 41 38 -4 7 -22 12 -41
12 -19 0 -37 -5 -41 -12z"/>
<path d="M5730 7341 c0 -22 36 -34 62 -20 33 18 22 39 -22 39 -33 0 -40 -4
-40 -19z"/>
<path d="M5573 7244 c-20 -9 -15 -32 8 -39 32 -10 71 3 67 23 -3 17 -49 27
-75 16z"/>
<path d="M5583 7130 c-13 -5 -23 -14 -23 -19 0 -17 38 -32 65 -25 30 7 33 29
6 44 -22 11 -19 11 -48 0z"/>
<path d="M5573 7013 c-7 -2 -13 -11 -13 -18 0 -27 77 -35 87 -9 10 26 -36 43
-74 27z"/>
<path d="M5763 7013 c-20 -8 -15 -31 8 -38 28 -9 69 2 69 19 0 22 -44 33 -77
19z"/>
<path d="M5564 6878 c-11 -17 27 -40 56 -33 32 8 34 11 27 30 -7 18 -72 21
-83 3z"/>
<path d="M5570 6755 c-17 -21 -3 -35 36 -35 23 0 37 6 41 16 12 31 -53 47 -77
19z"/>
<path d="M5880 6632 c-21 -17 -21 -19 -5 -35 19 -20 38 -21 66 -7 27 15 24 39
-7 50 -32 13 -28 13 -54 -8z"/>
<path d="M5565 6630 c-10 -16 14 -40 39 -40 31 0 50 16 43 34 -7 18 -72 23
-82 6z"/>
<path d="M5732 6628 c-18 -18 5 -38 45 -38 36 0 57 25 32 41 -20 13 -63 11
-77 -3z"/>
<path d="M6195 7356 c-20 -16 -20 -16 0 -31 25 -19 64 -16 79 7 13 21 8 26
-30 34 -19 3 -36 0 -49 -10z"/>
<path d="M6194 7235 c-9 -22 4 -35 34 -35 36 0 56 14 49 34 -8 21 -75 22 -83
1z"/>
<path d="M6205 7126 c-16 -12 -17 -16 -6 -30 17 -20 41 -20 67 -1 19 15 19 15
0 30 -24 19 -37 19 -61 1z"/>
<path d="M6203 7013 c-7 -2 -13 -11 -13 -18 0 -27 77 -35 87 -9 10 26 -36 43
-74 27z"/>
<path d="M6194 6878 c-11 -17 27 -40 56 -33 32 8 34 11 27 30 -7 18 -72 21
-83 3z"/>
<path d="M6201 6761 c-25 -16 -4 -41 34 -41 23 0 38 5 42 16 7 18 -12 34 -42
34 -11 0 -26 -4 -34 -9z"/>
<path d="M6195 6630 c-10 -16 14 -40 39 -40 31 0 50 16 43 34 -7 18 -72 23
-82 6z"/>
<path d="M6593 7363 c-23 -9 -15 -42 11 -49 25 -6 66 10 66 26 0 20 -48 35
-77 23z"/>
<path d="M6974 7355 c-19 -15 -19 -15 0 -30 11 -8 25 -15 31 -15 6 0 20 7 31
15 19 15 19 15 0 30 -11 8 -25 15 -31 15 -6 0 -20 -7 -31 -15z"/>
<path d="M6582 7237 c-18 -21 9 -39 50 -35 25 2 33 8 33 23 0 16 -8 21 -36 23
-22 2 -40 -2 -47 -11z"/>
<path d="M6973 7243 c-20 -8 -15 -31 8 -38 28 -9 69 2 69 19 0 22 -44 33 -77
19z"/>
<path d="M6585 7126 c-20 -16 -20 -16 0 -31 25 -19 64 -16 79 7 13 21 8 26
-30 34 -19 3 -36 0 -49 -10z"/>
<path d="M6974 7125 c-19 -15 -19 -15 0 -30 11 -8 25 -15 31 -15 6 0 20 7 31
15 19 15 19 15 0 30 -11 8 -25 15 -31 15 -6 0 -20 -7 -31 -15z"/>
<path d="M6580 7005 c-25 -30 40 -57 75 -32 16 13 17 17 6 31 -17 20 -65 21
-81 1z"/>
<path d="M6772 7008 c-18 -18 5 -38 45 -38 36 0 57 25 32 41 -20 13 -63 11
-77 -3z"/>
<path d="M6969 7004 c-10 -13 -10 -17 2 -25 23 -15 69 -11 76 7 12 32 -54 47
-78 18z"/>
<path d="M6585 6886 c-16 -12 -17 -16 -6 -30 7 -9 26 -16 41 -16 15 0 34 7 41
16 11 14 10 18 -6 30 -10 8 -26 14 -35 14 -9 0 -25 -6 -35 -14z"/>
<path d="M6967 6883 c-21 -20 20 -47 58 -37 28 7 33 29 9 38 -21 8 -59 8 -67
-1z"/>
<path d="M6582 6757 c-22 -26 22 -53 63 -37 28 11 33 35 9 44 -26 10 -61 7
-72 -7z"/>
<path d="M6970 6755 c-17 -21 -3 -35 36 -35 23 0 37 6 41 16 12 31 -53 47 -77
19z"/>
<path d="M6597 6643 c-12 -3 -17 -12 -15 -26 4 -27 58 -36 77 -13 10 11 8 17
-11 30 -12 9 -25 15 -28 15 -3 -1 -13 -3 -23 -6z"/>
<path d="M6965 6630 c-12 -19 16 -41 49 -38 23 2 31 8 31 23 0 16 -8 21 -37
23 -20 2 -39 -2 -43 -8z"/>
<path d="M7692 7359 c-32 -12 -22 -33 18 -37 43 -4 62 14 36 34 -23 16 -23 16
-54 3z"/>
<path d="M7364 7349 c-15 -24 43 -46 71 -26 10 8 15 19 11 25 -9 15 -73 16
-82 1z"/>
<path d="M7535 7350 c-12 -19 10 -32 46 -28 48 4 46 32 -3 36 -20 2 -39 -2
-43 -8z"/>
<path d="M7372 7238 c-26 -26 32 -51 67 -29 8 5 11 16 8 25 -7 19 -57 22 -75
4z"/>
<path d="M7364 7118 c-8 -12 22 -38 44 -38 7 0 22 5 33 11 16 8 18 13 8 25
-14 17 -75 19 -85 2z"/>
<path d="M7377 7009 c-14 -8 -16 -14 -6 -25 16 -19 68 -18 76 2 11 29 -34 44
-70 23z"/>
<path d="M7562 7008 c-8 -8 -9 -15 -1 -25 14 -16 43 -17 71 -2 21 11 21 12 3
25 -23 17 -57 18 -73 2z"/>
<path d="M7371 6876 c-11 -13 -9 -17 12 -25 33 -13 69 -3 65 18 -4 22 -61 27
-77 7z"/>
<path d="M7377 6759 c-14 -8 -16 -14 -6 -25 16 -19 68 -18 76 2 11 29 -34 44
-70 23z"/>
<path d="M7374 6625 c-8 -20 4 -35 29 -35 31 0 51 15 44 34 -8 20 -65 22 -73
1z"/>
<path d="M7543 6633 c-18 -7 -16 -30 3 -37 26 -10 51 -7 63 7 21 26 -26 47
-66 30z"/>
<path d="M7679 6624 c-11 -14 -10 -18 6 -30 25 -18 50 -18 70 2 12 12 13 19 4
30 -16 19 -63 18 -80 -2z"/>
<path d="M5202 6639 c-25 -9 -28 -19 -10 -37 16 -16 53 -15 68 3 22 27 -16 49
-58 34z"/>
<path d="M1692 6254 c-28 -19 -29 -57 -2 -84 27 -27 62 -25 98 5 17 14 33 25
37 25 4 0 20 -11 37 -25 37 -31 68 -32 96 -2 29 31 28 51 -4 76 -35 27 -56 26
-92 -4 -17 -14 -32 -25 -35 -25 -3 0 -18 11 -33 25 -31 29 -69 32 -102 9z"/>
<path d="M2616 6239 c-49 -38 -21 -99 46 -99 30 0 68 34 68 61 0 21 -45 59
-70 59 -10 0 -29 -9 -44 -21z"/>
<path d="M2880 6240 c-31 -31 -26 -66 11 -86 40 -20 75 -11 94 25 13 27 13 31
-6 55 -25 32 -70 35 -99 6z"/>
<path d="M3135 6139 c-10 -30 8 -43 49 -35 41 8 44 16 18 39 -26 24 -59 21
-67 -4z"/>
<path d="M3170 6060 c-13 -8 -13 -10 2 -10 9 0 20 5 23 10 8 13 -5 13 -25 0z"/>
<path d="M2621 5979 c-34 -21 -39 -43 -15 -77 11 -16 25 -22 54 -22 59 0 92
58 53 92 -29 25 -59 27 -92 7z"/>
<path d="M1668 5979 c-35 -20 -41 -47 -18 -79 29 -40 79 -42 109 -4 27 35 26
48 -5 73 -29 23 -59 26 -86 10z"/>
<path d="M1895 5965 c-31 -30 -31 -36 0 -69 29 -31 74 -35 98 -8 58 64 -38
138 -98 77z"/>
<path d="M2857 5983 c-4 -3 -7 -96 -7 -205 l0 -199 46 3 c38 2 51 8 68 31 19
26 21 41 20 155 -1 146 -8 187 -37 207 -22 15 -78 20 -90 8z"/>
<path d="M3185 5924 c-14 -15 -25 -30 -25 -35 0 -22 16 -43 44 -54 25 -11 35
-11 58 1 27 14 48 42 48 63 0 15 -60 51 -83 51 -10 0 -29 -12 -42 -26z"/>
<path d="M2610 5710 c-25 -25 -25 -52 0 -75 40 -36 120 -11 120 37 0 28 -36
58 -70 58 -17 0 -39 -9 -50 -20z"/>
<path d="M3205 5710 c-51 -20 -58 -70 -14 -102 24 -18 28 -19 63 -4 43 18 53
38 36 71 -10 18 -52 48 -63 44 -1 0 -11 -4 -22 -9z"/>
<path d="M1628 5693 c7 -3 16 -2 19 1 4 3 -2 6 -13 5 -11 0 -14 -3 -6 -6z"/>
<path d="M1940 5680 c-11 -11 -20 -24 -20 -29 0 -20 43 -61 64 -61 30 0 76 36
76 59 0 47 -82 69 -120 31z"/>
<path d="M1670 5669 c-34 -14 -33 -13 -15 -48 19 -37 25 -38 54 -7 40 43 16
77 -39 55z"/>
<path d="M3091 5486 c-21 -22 -23 -29 -13 -51 17 -37 54 -51 92 -35 45 19 57
46 33 79 -28 37 -81 40 -112 7z"/>
<path d="M2616 5449 c-33 -26 -31 -55 6 -82 35 -26 75 -15 97 25 15 25 14 29
-8 52 -30 32 -60 33 -95 5z"/>
<path d="M1566 5409 c-14 -11 -26 -29 -26 -39 0 -24 46 -60 76 -60 28 0 64 33
64 58 0 24 -41 62 -67 62 -11 0 -32 -9 -47 -21z"/>
<path d="M1996 5409 c-14 -11 -26 -28 -26 -38 0 -24 41 -61 69 -61 23 0 71 41
71 60 0 18 -48 60 -68 60 -11 0 -31 -9 -46 -21z"/>
<path d="M2892 5394 c-50 -35 5 -117 64 -97 16 5 36 22 44 37 14 26 14 28 -13
52 -33 28 -63 31 -95 8z"/>
<path d="M1817 5283 c-4 -21 -7 -55 -7 -76 0 -31 3 -38 18 -35 14 3 17 13 14
68 -4 76 -16 98 -25 43z"/>
<path d="M3050 5183 c-53 -20 -66 -72 -25 -99 33 -21 71 -21 95 1 28 25 25 60
-6 84 -27 21 -38 24 -64 14z"/>
<path d="M2607 5162 c-36 -39 -3 -92 57 -92 36 0 66 28 66 61 0 45 -90 67
-123 31z"/>
<path d="M1532 5127 c-31 -33 -28 -63 8 -82 16 -8 35 -15 43 -15 23 0 67 40
67 60 0 23 -46 60 -75 60 -12 0 -31 -10 -43 -23z"/>
<path d="M2042 5143 c-7 -3 -19 -18 -28 -34 -14 -28 -13 -31 10 -54 44 -44
116 -22 116 35 0 44 -51 72 -98 53z"/>
<path d="M1770 4990 c-21 -21 -23 -29 -14 -55 8 -21 61 -48 77 -39 25 15 57
48 57 61 0 23 -39 53 -70 53 -17 0 -39 -9 -50 -20z"/>
<path d="M2622 4888 c-52 -26 -33 -90 31 -104 26 -5 35 -2 54 20 13 15 23 33
23 40 0 39 -64 66 -108 44z"/>
<path d="M3091 4874 c-12 -15 -21 -31 -21 -36 0 -19 50 -58 75 -58 30 0 65 32
65 60 0 57 -83 80 -119 34z"/>
<path d="M1487 4850 c-33 -26 -35 -63 -5 -84 31 -22 60 -20 92 5 30 24 33 49
9 72 -31 28 -66 30 -96 7z"/>
<path d="M2093 4860 c-52 -21 -52 -83 0 -105 34 -14 69 -4 96 28 16 20 -3 61
-36 76 -28 13 -30 13 -60 1z"/>
<path d="M2645 4612 c-28 -6 -55 -32 -55 -54 0 -53 94 -80 124 -36 21 29 20
51 -1 70 -23 19 -43 25 -68 20z"/>
<path d="M3178 4605 c-35 -19 -43 -48 -23 -79 22 -34 48 -40 84 -21 39 20 51
60 25 85 -28 26 -55 31 -86 15z"/>
<path d="M1454 4565 c-25 -26 -26 -52 -2 -82 19 -23 75 -16 97 13 19 24 19 29
6 54 -24 47 -63 53 -101 15z"/>
<path d="M2118 4574 c-40 -21 -39 -68 2 -89 42 -22 66 -19 89 11 26 33 26 35
-4 68 -27 29 -48 32 -87 10z"/>
<path d="M4916 6229 c-32 -26 -33 -43 -1 -74 29 -30 68 -32 95 -5 61 61 -25
133 -94 79z"/>
<path d="M5161 6226 c-27 -29 -22 -59 15 -82 63 -42 144 47 82 90 -33 23 -71
20 -97 -8z"/>
<path d="M5382 6234 c-30 -21 -28 -58 4 -83 35 -27 65 -27 92 2 27 29 28 47 2
75 -24 26 -66 29 -98 6z"/>
<path d="M4917 5970 c-32 -26 -34 -39 -6 -74 27 -34 71 -35 105 -1 l25 26 -18
32 c-24 41 -67 48 -106 17z"/>
<path d="M4945 5723 c-28 -7 -55 -33 -55 -53 0 -15 29 -48 57 -64 16 -9 70 19
83 43 14 26 3 49 -31 66 -15 8 -29 14 -31 14 -2 -1 -12 -4 -23 -6z"/>
<path d="M4929 5455 c-37 -20 -44 -44 -21 -75 32 -42 89 -39 118 6 16 24 16
26 -11 54 -32 33 -48 36 -86 15z"/>
<path d="M5196 5441 c-27 -28 -27 -30 -11 -55 24 -36 60 -43 101 -21 46 24 49
42 15 76 -37 37 -70 37 -105 0z"/>
<path d="M4950 5173 c0 -8 65 -53 75 -53 12 0 3 28 -13 43 -19 17 -62 23 -62
10z"/>
<path d="M4907 5152 c-23 -25 -21 -39 8 -67 24 -25 69 -33 80 -15 6 9 -53 99
-66 100 -3 0 -13 -8 -22 -18z"/>
<path d="M4922 4883 c-23 -9 -34 -41 -21 -65 16 -31 28 -38 65 -38 54 0 84 59
48 94 -15 15 -65 20 -92 9z"/>
<path d="M4917 4592 c-24 -26 -22 -68 5 -86 32 -23 65 -20 94 9 l25 26 -18 32
c-23 40 -78 50 -106 19z"/>
<path d="M5185 4598 c-24 -13 -45 -38 -45 -53 0 -22 41 -55 68 -55 37 0 72 26
72 54 0 41 -58 75 -95 54z"/>
<path d="M5403 4595 c-46 -19 -55 -53 -23 -85 30 -30 85 -27 107 6 15 23 15
29 2 52 -19 33 -48 43 -86 27z"/>
<path d="M3720 6228 c-25 -27 -26 -50 -2 -71 41 -38 122 -11 122 40 0 50 -82
72 -120 31z"/>
<path d="M4281 6224 c-19 -24 -19 -28 -5 -55 28 -55 124 -34 124 27 0 53 -84
72 -119 28z"/>
<path d="M3733 5980 c-12 -5 -25 -21 -29 -36 -6 -22 -2 -32 20 -51 34 -29 67
-29 94 0 29 31 28 51 -4 76 -29 23 -46 25 -81 11z"/>
<path d="M4170 5963 c-26 -9 -50 -35 -50 -53 0 -23 42 -60 69 -60 25 0 71 41
71 65 0 36 -49 63 -90 48z"/>
<path d="M3745 5720 c-70 -28 -45 -110 34 -110 21 0 61 40 61 62 0 33 -59 63
-95 48z"/>
<path d="M4048 5674 c-36 -19 -37 -56 -2 -83 35 -27 59 -26 89 4 33 32 31 57
-4 78 -35 21 -48 21 -83 1z"/>
<path d="M3733 5450 c-39 -23 -42 -48 -10 -78 30 -28 71 -28 97 0 26 28 25 49
-3 76 -29 27 -43 27 -84 2z"/>
<path d="M4112 5387 c-28 -30 -28 -48 1 -75 26 -25 45 -27 81 -10 63 28 32
108 -43 108 -10 0 -27 -10 -39 -23z"/>
<path d="M3742 5173 c-53 -26 -55 -81 -2 -103 38 -16 59 -10 84 23 19 26 19
30 6 54 -21 36 -50 44 -88 26z"/>
<path d="M4192 5114 c-47 -32 -15 -104 46 -104 23 0 72 40 72 60 0 20 -49 60
-72 60 -13 0 -34 -7 -46 -16z"/>
<path d="M3742 4893 c-7 -3 -19 -18 -28 -35 -15 -28 -14 -31 7 -54 26 -28 65
-31 97 -8 33 23 29 60 -10 84 -34 20 -43 22 -66 13z"/>
<path d="M4291 4837 c-58 -30 -34 -107 34 -107 57 0 85 60 45 100 -23 23 -45
25 -79 7z"/>
<path d="M4354 4601 c-39 -24 -45 -39 -28 -73 19 -36 76 -48 104 -23 29 26 26
69 -6 94 -32 25 -32 25 -70 2z"/>
<path d="M3732 4598 c-30 -15 -39 -54 -17 -78 36 -40 98 -31 125 20 9 17 6 25
-14 45 -27 27 -57 31 -94 13z"/>
<path d="M5903 6224 c-15 -24 -15 -29 -2 -53 20 -35 78 -42 108 -12 26 26 26
46 1 71 -30 30 -85 27 -107 -6z"/>
<path d="M6177 6232 c-36 -40 -7 -92 51 -92 52 0 77 43 52 91 -14 26 -80 26
-103 1z"/>
<path d="M6467 6232 c-21 -23 -21 -41 -1 -70 15 -22 66 -30 90 -14 24 16 33
48 21 73 -17 32 -85 39 -110 11z"/>
<path d="M6210 5992 c-30 -9 -50 -36 -50 -64 0 -38 56 -68 95 -50 30 14 46 48
35 77 -8 22 -57 45 -80 37z"/>
<path d="M6173 5706 c-27 -24 -27 -26 -13 -52 20 -36 66 -52 88 -30 14 14 14
17 -3 36 -22 24 -15 36 13 21 27 -14 32 -14 32 3 0 20 -39 46 -67 46 -12 0
-35 -11 -50 -24z"/>
<path d="M6175 5444 c-14 -15 -25 -30 -25 -34 0 -4 11 -19 25 -34 50 -54 124
-16 116 60 -1 13 -45 34 -72 34 -11 0 -31 -12 -44 -26z"/>
<path d="M6210 5182 c-66 -21 -64 -91 3 -115 24 -9 73 17 79 40 11 43 -39 89
-82 75z"/>
<path d="M6180 4880 c-30 -30 -26 -66 10 -85 40 -21 66 -19 84 7 22 32 20 64
-6 82 -31 22 -64 20 -88 -4z"/>
<path d="M6193 4605 c-26 -11 -33 -20 -33 -43 0 -50 54 -81 99 -57 48 24 48
76 1 100 -34 18 -27 18 -67 0z"/>
<path d="M7016 6236 c-15 -14 -26 -32 -26 -41 0 -9 11 -27 26 -41 27 -28 63
-27 97 3 36 33 13 84 -45 98 -21 5 -33 1 -52 -19z"/>
<path d="M7274 6225 c-33 -50 21 -101 84 -79 32 11 44 44 28 75 -9 19 -21 25
-53 27 -36 3 -44 -1 -59 -23z"/>
<path d="M7582 6243 c-23 -9 -34 -41 -21 -65 16 -31 28 -38 66 -38 33 0 63 29
63 61 0 36 -62 61 -108 42z"/>
<path d="M7302 5985 c-59 -25 -57 -85 4 -105 32 -11 39 -10 63 7 37 29 36 71
-4 94 -27 16 -34 16 -63 4z"/>
<path d="M7288 5714 c-69 -37 -1 -124 72 -94 50 21 52 82 3 101 -32 12 -43 11
-75 -7z"/>
<path d="M7282 5447 c-28 -30 -28 -48 1 -75 23 -22 62 -28 83 -14 15 10 34 47
34 66 0 17 -49 46 -78 46 -10 0 -28 -10 -40 -23z"/>
<path d="M7310 5182 c-49 -15 -65 -66 -30 -97 41 -37 120 -11 120 40 0 36 -52
69 -90 57z"/>
<path d="M7282 4877 c-29 -31 -28 -51 4 -76 36 -28 68 -26 93 5 27 35 26 48
-5 73 -35 27 -65 27 -92 -2z"/>
<path d="M7315 4612 c-52 -11 -71 -64 -35 -97 41 -37 120 -11 120 40 0 36 -45
66 -85 57z"/>
</g>
</svg>
